# xmcd
#
# Track frame offsets: 
#        182
#        14492
#        30517
#        41920
#        56287
#        71827
#        85807
#        103875
#        117487
#        131875
#        149735
#
# Disc length: 2242 seconds
#
# Revision: 1
# Processed by: cddbd v1.5.2PL0 Copyright (c) Steve Scherf et al.
# Submitted via: ExactAudioCopy v1.0b4
#
DISCID=a708c00b
DTITLE=Randy Travis - Best Of Disc 2
DYEAR=1993
DGENRE=Country
TTITLE0=Look Heart No Hands
TTITLE1=Forever And Ever Amen
TTITLE2=I'll Do It All Again With You
TTITLE3=Is It Still Over
TTITLE4=He Walked On Water
TTITLE5=Forever Together
TTITLE6=Promises
TTITLE7=Diggin Up Bones
TTITLE8=I Wont Need You Anymore
TTITLE9=It's Just A Matter Of Time
TTITLE10=No Place Like Home
EXTD=
EXTT0=
EXTT1=
EXTT2=
EXTT3=
EXTT4=
EXTT5=
EXTT6=
EXTT7=
EXTT8=
EXTT9=
EXTT10=
PLAYORDER=
